<?xml version="1.0" encoding="UTF-8"?>
<svg id="Layer_1" data-name="Layer 1" xmlns="http://www.w3.org/2000/svg" viewBox="0 0 48 48">
  <defs>
    <style>
      .cls-1 {
        fill: #1d1d1b;
      }
    </style>
  </defs>
  <polygon class="cls-1" points="26.04 25.04 21.98 25.04 17.93 25.04 17.93 20.53 17.93 16.02 21.98 16.02 26.04 16.02 30.09 16.02 34.14 16.02 34.14 11.52 34.14 7.01 30.09 7.01 26.04 7.01 21.98 7.01 17.93 7.01 13.88 7.01 9.83 7.01 9.83 11.52 9.83 16.02 9.83 20.53 9.83 25.04 9.83 29.55 9.83 34.05 9.83 38.56 9.83 43.07 13.88 43.07 17.93 43.07 17.93 38.56 17.93 34.05 21.98 34.05 26.04 34.05 30.09 34.05 34.14 34.05 34.14 29.55 34.14 25.04 30.09 25.04 26.04 25.04"/>
  <polygon class="cls-1" points="38.19 16.02 34.14 16.02 34.14 20.53 34.14 25.04 38.19 25.04 42.25 25.04 42.25 20.53 42.25 16.02 38.19 16.02"/>
</svg>